<?xml version="1.0" encoding="us-ascii" standalone="no"?><svg xmlns="http://www.w3.org/2000/svg" xmlns:xlink="http://www.w3.org/1999/xlink" contentStyleType="text/css" height="440px" preserveAspectRatio="none" style="width:614px;height:440px;background:#FFFFFF;" version="1.1" viewBox="0 0 614 440" width="614px" zoomAndPan="magnify"><defs/><g><!--class gorm--><g id="elem_gorm"><rect codeLine="199" fill="#F1F1F1" height="113.1875" id="gorm" rx="2.5" ry="2.5" style="stroke:#181818;stroke-width:0.5;" width="323" x="7" y="7"/><ellipse cx="123.25" cy="23" fill="#ADD1B2" rx="11" ry="11" style="stroke:#181818;stroke-width:1.0;"/><path d="M127.3594,29 L119.6406,29 L119.6406,16.6094 L127.3594,16.6094 L127.3594,18.7656 L122.0938,18.7656 L122.0938,21.4375 L126.8594,21.4375 L126.8594,23.5938 L122.0938,23.5938 L122.0938,26.8438 L127.3594,26.8438 L127.3594,29 Z " fill="#000000"/><text fill="#000000" font-family="sans-serif" font-size="14" lengthAdjust="spacing" textLength="82" x="143.75" y="27.8467">gorm.Model</text><line style="stroke:#181818;stroke-width:0.5;" x1="8" x2="329" y1="39" y2="39"/><ellipse cx="18" cy="52.6484" fill="#000000" rx="3" ry="3" style="stroke:#000000;stroke-width:1.0;"/><text fill="#000000" font-family="sans-serif" font-size="14" lengthAdjust="spacing" textLength="233" x="27" y="55.9951">ID        : uint   `gorm:"primaryKey"`</text><text fill="#000000" font-family="sans-serif" font-size="14" lengthAdjust="spacing" textLength="150" x="27" y="72.292">CreatedAt : time.Time</text><text fill="#000000" font-family="sans-serif" font-size="14" lengthAdjust="spacing" textLength="154" x="27" y="88.5889">UpdatedAt : time.Time</text><text fill="#000000" font-family="sans-serif" font-size="14" lengthAdjust="spacing" textLength="297" x="27" y="104.8857">DeletedAt : gorm.DeletedAt `gorm:"index"`</text><line style="stroke:#181818;stroke-width:0.5;" x1="8" x2="329" y1="112.1875" y2="112.1875"/></g><!--class hash--><g id="elem_hash"><rect codeLine="205" fill="#F1F1F1" height="96.8906" id="hash" rx="2.5" ry="2.5" style="stroke:#181818;stroke-width:0.5;" width="191" x="365" y="337"/><ellipse cx="417.75" cy="353" fill="#ADD1B2" rx="11" ry="11" style="stroke:#181818;stroke-width:1.0;"/><path d="M421.8594,359 L414.1406,359 L414.1406,346.6094 L421.8594,346.6094 L421.8594,348.7656 L416.5938,348.7656 L416.5938,351.4375 L421.3594,351.4375 L421.3594,353.5938 L416.5938,353.5938 L416.5938,356.8438 L421.8594,356.8438 L421.8594,359 Z " fill="#000000"/><text fill="#000000" font-family="sans-serif" font-size="14" lengthAdjust="spacing" textLength="77" x="438.25" y="357.8467">ModelHash</text><line style="stroke:#181818;stroke-width:0.5;" x1="366" x2="555" y1="369" y2="369"/><text fill="#000000" font-family="sans-serif" font-size="14" lengthAdjust="spacing" textLength="165" x="385" y="385.9951">gorm.Model &#171;inherited&#187;</text><ellipse cx="376" cy="398.9453" fill="#000000" rx="3" ry="3" style="stroke:#000000;stroke-width:1.0;"/><text fill="#000000" font-family="sans-serif" font-size="14" lengthAdjust="spacing" textLength="78" x="385" y="402.292">name : text</text><ellipse cx="376" cy="415.2422" fill="#000000" rx="3" ry="3" style="stroke:#000000;stroke-width:1.0;"/><text fill="#000000" font-family="sans-serif" font-size="14" lengthAdjust="spacing" textLength="73" x="385" y="418.5889">hash : text</text><line style="stroke:#181818;stroke-width:0.5;" x1="366" x2="555" y1="425.8906" y2="425.8906"/></g><!--class hashbatch--><g id="elem_hashbatch"><rect codeLine="210" fill="#F1F1F1" height="96.8906" id="hashbatch" rx="2.5" ry="2.5" style="stroke:#181818;stroke-width:0.5;" width="191" x="365" y="15"/><ellipse cx="398.9" cy="31" fill="#ADD1B2" rx="11" ry="11" style="stroke:#181818;stroke-width:1.0;"/><path d="M403.0094,37 L395.2906,37 L395.2906,24.6094 L403.0094,24.6094 L403.0094,26.7656 L397.7438,26.7656 L397.7438,29.4375 L402.5094,29.4375 L402.5094,31.5938 L397.7438,31.5938 L397.7438,34.8438 L403.0094,34.8438 L403.0094,37 Z " fill="#000000"/><text fill="#000000" font-family="sans-serif" font-size="14" lengthAdjust="spacing" textLength="117" x="417.1" y="35.8467">ModelHashBatch</text><line style="stroke:#181818;stroke-width:0.5;" x1="366" x2="555" y1="47" y2="47"/><text fill="#000000" font-family="sans-serif" font-size="14" lengthAdjust="spacing" textLength="165" x="385" y="63.9951">gorm.Model &#171;inherited&#187;</text><ellipse cx="376" cy="76.9453" fill="#000000" rx="3" ry="3" style="stroke:#000000;stroke-width:1.0;"/><text fill="#000000" font-family="sans-serif" font-size="14" lengthAdjust="spacing" textLength="107" x="385" y="80.292">safename : text</text><text fill="#000000" font-family="sans-serif" font-size="14" lengthAdjust="spacing" textLength="146" x="385" y="96.5889">hashes : List&lt;Hash&gt;</text><line style="stroke:#181818;stroke-width:0.5;" x1="366" x2="555" y1="103.8906" y2="103.8906"/></g><!--class safehash--><g id="elem_safehash"><rect codeLine="215" fill="#F1F1F1" height="96.8906" id="safehash" rx="2.5" ry="2.5" style="stroke:#181818;stroke-width:0.5;" width="293" x="314" y="180"/><ellipse cx="395.75" cy="196" fill="#ADD1B2" rx="11" ry="11" style="stroke:#181818;stroke-width:1.0;"/><path d="M399.8594,202 L392.1406,202 L392.1406,189.6094 L399.8594,189.6094 L399.8594,191.7656 L394.5938,191.7656 L394.5938,194.4375 L399.3594,194.4375 L399.3594,196.5938 L394.5938,196.5938 L394.5938,199.8438 L399.8594,199.8438 L399.8594,202 Z " fill="#000000"/><text fill="#000000" font-family="sans-serif" font-size="14" lengthAdjust="spacing" textLength="121" x="416.25" y="200.8467">SafenameHashes</text><line style="stroke:#181818;stroke-width:0.5;" x1="315" x2="606" y1="212" y2="212"/><ellipse cx="325" cy="225.6484" fill="#000000" rx="3" ry="3" style="stroke:#000000;stroke-width:1.0;"/><text fill="#000000" font-family="sans-serif" font-size="14" lengthAdjust="spacing" textLength="267" x="334" y="228.9951">ModelHashBatch.safename : text &#171;FK&#187;</text><ellipse cx="325" cy="241.9453" fill="#000000" rx="3" ry="3" style="stroke:#000000;stroke-width:1.0;"/><text fill="#000000" font-family="sans-serif" font-size="14" lengthAdjust="spacing" textLength="193" x="334" y="245.292">ModelHash.hash : text &#171;FK&#187;</text><ellipse cx="325" cy="258.2422" fill="#000000" rx="3" ry="3" style="stroke:#000000;stroke-width:1.0;"/><text fill="#000000" font-family="sans-serif" font-size="14" lengthAdjust="spacing" textLength="198" x="334" y="261.5889">ModelHash.name : text &#171;FK&#187;</text><line style="stroke:#181818;stroke-width:0.5;" x1="315" x2="606" y1="268.8906" y2="268.8906"/></g><!--link hashbatch to safehash--><g id="link_hashbatch_safehash"><path codeLine="221" d="M460.5,120.11 C460.5,141.5 460.5,150.57 460.5,171.95 " fill="none" id="hashbatch-safehash" style="stroke:#181818;stroke-width:1.0;"/><line style="stroke:#181818;stroke-width:1.0;" x1="456.5" x2="464.5" y1="116.11" y2="116.11"/><line style="stroke:#181818;stroke-width:1.0;" x1="456.5" x2="464.5" y1="119.11" y2="119.11"/><line style="stroke:#181818;stroke-width:1.0;" x1="460.5" x2="460.5" y1="120.11" y2="112.11"/><line style="stroke:#181818;stroke-width:1.0;" x1="460.5" x2="466.5" y1="171.95" y2="179.95"/><line style="stroke:#181818;stroke-width:1.0;" x1="460.5" x2="454.5" y1="171.95" y2="179.95"/><line style="stroke:#181818;stroke-width:1.0;" x1="460.5" x2="460.5" y1="171.95" y2="179.95"/><line style="stroke:#181818;stroke-width:1.0;" x1="464.5" x2="456.5" y1="169.95" y2="169.95"/></g><!--link safehash to hash--><g id="link_safehash_hash"><path codeLine="222" d="M460.5,285.32 C460.5,304.31 460.5,310.02 460.5,328.98 " fill="none" id="safehash-hash" style="stroke:#181818;stroke-width:1.0;"/><line style="stroke:#181818;stroke-width:1.0;" x1="456.5" x2="464.5" y1="281.32" y2="281.32"/><line style="stroke:#181818;stroke-width:1.0;" x1="456.5" x2="464.5" y1="284.32" y2="284.32"/><line style="stroke:#181818;stroke-width:1.0;" x1="460.5" x2="460.5" y1="285.32" y2="277.32"/><line style="stroke:#181818;stroke-width:1.0;" x1="460.5" x2="466.5" y1="328.98" y2="336.98"/><line style="stroke:#181818;stroke-width:1.0;" x1="460.5" x2="454.5" y1="328.98" y2="336.98"/><line style="stroke:#181818;stroke-width:1.0;" x1="460.5" x2="460.5" y1="328.98" y2="336.98"/><line style="stroke:#181818;stroke-width:1.0;" x1="464.5" x2="456.5" y1="326.98" y2="326.98"/></g><!--SRC=[XK_1QiCm3BtxAqIEXUO3IWXiAwEZssdRlTwYBMAn4smD6fh- -opZEUq8p0UZ9pszz-I_o0xQQGCTMUHnGEWTjxr2oyGZ59-zC-LJts1NWFOW44uAO0KFMqXl0zzaEHG76M-AmP7HRjpZM1m2zSwXPcnkE12P39OluGlzrw5Px6-nmzz-j9yRoO1iWyUWVSunOyATzcrCsOOYffpJGrMHRT5H4AfhES1gW-ACHnOOTn9SqBtL_3wBlmdwrm6y_i1h6rb67_0ZUQv4kBvmUqxyNMH5Dv78vwpWEa_vno14kDydxymiBovR9Ymed9MQxvoczNewvIWgPqe3gNy0]--></g></svg>