<?xml version="1.0" encoding="us-ascii" standalone="no"?><svg xmlns="http://www.w3.org/2000/svg" xmlns:xlink="http://www.w3.org/1999/xlink" contentStyleType="text/css" height="738px" preserveAspectRatio="none" style="width:1109px;height:738px;background:#FFFFFF;" version="1.1" viewBox="0 0 1109 738" width="1109px" zoomAndPan="magnify"><defs/><g><text fill="#000000" font-family="sans-serif" font-size="14" font-weight="bold" lengthAdjust="spacing" textLength="129" x="486.25" y="28.5352">Brimstone Design</text><rect fill="none" height="133.5527" style="stroke:#000000;stroke-width:1.5;" width="782.5" x="63" y="253.2188"/><line style="stroke:#181818;stroke-width:0.5;stroke-dasharray:5.0,5.0;" x1="30" x2="30" y1="118.9766" y2="731.1875"/><line style="stroke:#181818;stroke-width:0.5;stroke-dasharray:5.0,5.0;" x1="114" x2="114" y1="118.9766" y2="731.1875"/><line style="stroke:#181818;stroke-width:0.5;stroke-dasharray:5.0,5.0;" x1="597.5" x2="597.5" y1="118.9766" y2="731.1875"/><line style="stroke:#181818;stroke-width:0.5;stroke-dasharray:5.0,5.0;" x1="674.5" x2="674.5" y1="118.9766" y2="731.1875"/><line style="stroke:#181818;stroke-width:0.5;stroke-dasharray:5.0,5.0;" x1="782.5" x2="782.5" y1="118.9766" y2="731.1875"/><line style="stroke:#181818;stroke-width:0.5;stroke-dasharray:5.0,5.0;" x1="886.5" x2="886.5" y1="118.9766" y2="731.1875"/><line style="stroke:#181818;stroke-width:0.5;stroke-dasharray:5.0,5.0;" x1="1017.5" x2="1017.5" y1="118.9766" y2="731.1875"/><text fill="#000000" font-family="sans-serif" font-size="14" lengthAdjust="spacing" textLength="45" x="5" y="116.0234">Admin</text><ellipse cx="30.5" cy="50.9883" fill="#E2E2F0" rx="8" ry="8" style="stroke:#181818;stroke-width:0.5;"/><path d="M30.5,58.9883 L30.5,85.9883 M17.5,66.9883 L43.5,66.9883 M30.5,85.9883 L17.5,100.9883 M30.5,85.9883 L43.5,100.9883 " fill="none" style="stroke:#181818;stroke-width:0.5;"/><rect fill="#E2E2F0" height="30.4883" rx="2.5" ry="2.5" style="stroke:#181818;stroke-width:0.5;" width="83" x="73" y="87.4883"/><text fill="#000000" font-family="sans-serif" font-size="14" lengthAdjust="spacing" textLength="69" x="80" y="108.0234">Brimstone</text><rect fill="#E2E2F0" height="30.4883" rx="2.5" ry="2.5" style="stroke:#181818;stroke-width:0.5;" width="44" x="575.5" y="87.4883"/><text fill="#000000" font-family="sans-serif" font-size="14" lengthAdjust="spacing" textLength="30" x="582.5" y="108.0234">PAM</text><rect fill="#E2E2F0" height="30.4883" rx="2.5" ry="2.5" style="stroke:#181818;stroke-width:0.5;" width="91" x="629.5" y="87.4883"/><text fill="#000000" font-family="sans-serif" font-size="14" lengthAdjust="spacing" textLength="77" x="636.5" y="108.0234">CPM Plugin</text><rect fill="#E2E2F0" height="30.4883" rx="2.5" ry="2.5" style="stroke:#181818;stroke-width:0.5;" width="105" x="730.5" y="87.4883"/><text fill="#000000" font-family="sans-serif" font-size="14" lengthAdjust="spacing" textLength="91" x="737.5" y="108.0234">CockroachDB</text><rect fill="#E2E2F0" height="30.4883" rx="2.5" ry="2.5" style="stroke:#181818;stroke-width:0.5;" width="82" x="845.5" y="87.4883"/><text fill="#000000" font-family="sans-serif" font-size="14" lengthAdjust="spacing" textLength="68" x="852.5" y="108.0234">Scheduler</text><rect fill="#E2E2F0" height="30.4883" rx="2.5" ry="2.5" style="stroke:#181818;stroke-width:0.5;" width="160" x="937.5" y="87.4883"/><text fill="#000000" font-family="sans-serif" font-size="14" lengthAdjust="spacing" textLength="146" x="944.5" y="108.0234">Has My Secret Leaked</text><rect fill="#EEEEEE" height="3" style="stroke:#EEEEEE;stroke-width:1.0;" width="1102.5" x="0" y="149.6318"/><line style="stroke:#000000;stroke-width:1.0;" x1="0" x2="1102.5" y1="149.6318" y2="149.6318"/><line style="stroke:#000000;stroke-width:1.0;" x1="0" x2="1102.5" y1="152.6318" y2="152.6318"/><rect fill="#EEEEEE" height="23.3105" style="stroke:#000000;stroke-width:2.0;" width="382" x="360.25" y="138.9766"/><text fill="#000000" font-family="sans-serif" font-size="13" font-weight="bold" lengthAdjust="spacing" textLength="364" x="366.25" y="155.5449">Load PAM Accounts to Brimstone using Hailstone Tool</text><polygon fill="#181818" points="102.5,189.5977,112.5,193.5977,102.5,197.5977,106.5,193.5977" style="stroke:#181818;stroke-width:1.0;"/><line style="stroke:#181818;stroke-width:1.0;" x1="30.5" x2="108.5" y1="193.5977" y2="193.5977"/><text fill="#000000" font-family="sans-serif" font-size="13" lengthAdjust="spacing" textLength="60" x="37.5" y="188.8555">Run Once</text><polygon fill="#181818" points="585.5,234.2188,595.5,238.2188,585.5,242.2188,589.5,238.2188" style="stroke:#181818;stroke-width:1.0;"/><line style="stroke:#181818;stroke-width:1.0;" x1="114.5" x2="591.5" y1="238.2188" y2="238.2188"/><text fill="#000000" font-family="sans-serif" font-size="13" font-weight="bold" lengthAdjust="spacing" textLength="235" x="121.5" y="218.166">GET /PasswordVault/API/Accounts</text><text fill="#000000" font-family="sans-serif" font-size="13" lengthAdjust="spacing" textLength="146" x="121.5" y="233.4766">Get List of Account IDs</text><path d="M63,253.2188 L137,253.2188 L137,260.5293 L127,270.5293 L63,270.5293 L63,253.2188 " fill="#EEEEEE" style="stroke:#000000;stroke-width:1.5;"/><rect fill="none" height="133.5527" style="stroke:#000000;stroke-width:1.5;" width="782.5" x="63" y="253.2188"/><text fill="#000000" font-family="sans-serif" font-size="13" font-weight="bold" lengthAdjust="spacing" textLength="29" x="78" y="266.7871">loop</text><text fill="#000000" font-family="sans-serif" font-size="11" font-weight="bold" lengthAdjust="spacing" textLength="105" x="152" y="265.8535">[For Each Account]</text><polygon fill="#181818" points="585.5,303.1504,595.5,307.1504,585.5,311.1504,589.5,307.1504" style="stroke:#181818;stroke-width:1.0;"/><line style="stroke:#181818;stroke-width:1.0;" x1="114.5" x2="591.5" y1="307.1504" y2="307.1504"/><text fill="#000000" font-family="sans-serif" font-size="13" font-weight="bold" lengthAdjust="spacing" textLength="459" x="121.5" y="287.0977">GET /PasswordVault/API/Accounts/{accountId}/Password/Retrieve/</text><text fill="#000000" font-family="sans-serif" font-size="13" lengthAdjust="spacing" textLength="178" x="121.5" y="302.4082">Get Account Password Value</text><line style="stroke:#181818;stroke-width:1.0;" x1="114.5" x2="156.5" y1="336.4609" y2="336.4609"/><line style="stroke:#181818;stroke-width:1.0;" x1="156.5" x2="156.5" y1="336.4609" y2="349.4609"/><line style="stroke:#181818;stroke-width:1.0;" x1="115.5" x2="156.5" y1="349.4609" y2="349.4609"/><polygon fill="#181818" points="125.5,345.4609,115.5,349.4609,125.5,353.4609,121.5,349.4609" style="stroke:#181818;stroke-width:1.0;"/><text fill="#000000" font-family="sans-serif" font-size="13" lengthAdjust="spacing" textLength="180" x="121.5" y="331.7188">Compute Hash For Password</text><polygon fill="#181818" points="771,374.7715,781,378.7715,771,382.7715,775,378.7715" style="stroke:#181818;stroke-width:1.0;"/><line style="stroke:#181818;stroke-width:1.0;" x1="114.5" x2="777" y1="378.7715" y2="378.7715"/><text fill="#000000" font-family="sans-serif" font-size="13" lengthAdjust="spacing" textLength="68" x="121.5" y="374.0293">Store Hash</text><polygon fill="#181818" points="41.5,411.082,31.5,415.082,41.5,419.082,37.5,415.082" style="stroke:#181818;stroke-width:1.0;"/><line style="stroke:#181818;stroke-width:1.0;" x1="35.5" x2="113.5" y1="415.082" y2="415.082"/><text fill="#000000" font-family="sans-serif" font-size="13" lengthAdjust="spacing" textLength="33" x="47.5" y="410.3398">Done</text><rect fill="#EEEEEE" height="3" style="stroke:#EEEEEE;stroke-width:1.0;" width="1102.5" x="0" y="443.7373"/><line style="stroke:#000000;stroke-width:1.0;" x1="0" x2="1102.5" y1="443.7373" y2="443.7373"/><line style="stroke:#000000;stroke-width:1.0;" x1="0" x2="1102.5" y1="446.7373" y2="446.7373"/><rect fill="#EEEEEE" height="23.3105" style="stroke:#000000;stroke-width:2.0;" width="192" x="455.25" y="433.082"/><text fill="#000000" font-family="sans-serif" font-size="13" font-weight="bold" lengthAdjust="spacing" textLength="174" x="461.25" y="449.6504">Updates From CPM Plugin</text><polygon fill="#181818" points="125.5,509.6689,115.5,513.6689,125.5,517.6689,121.5,513.6689" style="stroke:#181818;stroke-width:1.0;"/><line style="stroke:#181818;stroke-width:1.0;" x1="119.5" x2="596.5" y1="513.6689" y2="513.6689"/><text fill="#000000" font-family="sans-serif" font-size="13" font-weight="bold" lengthAdjust="spacing" textLength="110" x="131.5" y="493.6162">PUT /v1/hashes</text><text fill="#000000" font-family="sans-serif" font-size="13" lengthAdjust="spacing" textLength="194" x="131.5" y="508.9268">CPM Plugin sends hmsl hashes</text><path d="M602,471.3926 L602,526.3926 L759,526.3926 L759,481.3926 L749,471.3926 L602,471.3926 " fill="#FEFFDD" style="stroke:#181818;stroke-width:0.5;"/><path d="M749,471.3926 L749,481.3926 L759,481.3926 L749,471.3926 " fill="#FEFFDD" style="stroke:#181818;stroke-width:0.5;"/><text fill="#000000" font-family="sans-serif" font-size="13" lengthAdjust="spacing" textLength="136" x="608" y="488.9609">CPM Plugin computes</text><text fill="#000000" font-family="sans-serif" font-size="13" lengthAdjust="spacing" textLength="135" x="608" y="504.2715">hashes on passwords</text><text fill="#000000" font-family="sans-serif" font-size="13" lengthAdjust="spacing" textLength="94" x="608" y="519.582">before sending</text><polygon fill="#181818" points="771,549.6348,781,553.6348,771,557.6348,775,553.6348" style="stroke:#181818;stroke-width:1.0;"/><line style="stroke:#181818;stroke-width:1.0;" x1="114.5" x2="777" y1="553.6348" y2="553.6348"/><text fill="#000000" font-family="sans-serif" font-size="13" lengthAdjust="spacing" textLength="82" x="121.5" y="548.8926">Store Hashes</text><rect fill="#EEEEEE" height="3" style="stroke:#EEEEEE;stroke-width:1.0;" width="1102.5" x="0" y="582.29"/><line style="stroke:#000000;stroke-width:1.0;" x1="0" x2="1102.5" y1="582.29" y2="582.29"/><line style="stroke:#000000;stroke-width:1.0;" x1="0" x2="1102.5" y1="585.29" y2="585.29"/><rect fill="#EEEEEE" height="23.3105" style="stroke:#000000;stroke-width:2.0;" width="223" x="439.75" y="571.6348"/><text fill="#000000" font-family="sans-serif" font-size="13" font-weight="bold" lengthAdjust="spacing" textLength="205" x="445.75" y="588.2031">Send To Has My Secret Leaked</text><polygon fill="#181818" points="125.5,637.5664,115.5,641.5664,125.5,645.5664,121.5,641.5664" style="stroke:#181818;stroke-width:1.0;"/><line style="stroke:#181818;stroke-width:1.0;" x1="119.5" x2="885.5" y1="641.5664" y2="641.5664"/><text fill="#000000" font-family="sans-serif" font-size="13" font-weight="bold" lengthAdjust="spacing" textLength="268" x="131.5" y="621.5137">GET /v1/hashes/send(prefixes|hashes)</text><text fill="#000000" font-family="sans-serif" font-size="13" lengthAdjust="spacing" textLength="149" x="131.5" y="636.8242">Trigger Upload to HMSL</text><line style="stroke:#181818;stroke-width:1.0;" x1="114.5" x2="156.5" y1="670.877" y2="670.877"/><line style="stroke:#181818;stroke-width:1.0;" x1="156.5" x2="156.5" y1="670.877" y2="683.877"/><line style="stroke:#181818;stroke-width:1.0;" x1="115.5" x2="156.5" y1="683.877" y2="683.877"/><polygon fill="#181818" points="125.5,679.877,115.5,683.877,125.5,687.877,121.5,683.877" style="stroke:#181818;stroke-width:1.0;"/><text fill="#000000" font-family="sans-serif" font-size="13" lengthAdjust="spacing" textLength="92" x="121.5" y="666.1348">Create Batches</text><polygon fill="#181818" points="1005.5,709.1875,1015.5,713.1875,1005.5,717.1875,1009.5,713.1875" style="stroke:#181818;stroke-width:1.0;"/><line style="stroke:#181818;stroke-width:1.0;" x1="114.5" x2="1011.5" y1="713.1875" y2="713.1875"/><text fill="#000000" font-family="sans-serif" font-size="13" lengthAdjust="spacing" textLength="266" x="121.5" y="708.4453">Upload Hashes (or Hash prefixes) to HMSL</text><!--SRC=[dLF1Rjim3BthAuYSsiDWx6eq0UAwRG8ac54dFVMYo4miL94CIUuwRFltKLRjnDdMGo-MPJwIxptINdg5a5bvTDveX1oTF6XMomfXRupVcJV6kF36mhmwIWtSmQHxcx26Mo-5RBZsPnK2OBYDGSLytONf70TkYnW8Pw7QmsNrF8jX8rwiuQBEit6y53LMhKBRmORR6BHObwiklg37-WUKA2nwM25_mMh2s7GAAyEhZkLS2DDgxy2RCscja_e02ovLl6-CKJ2TikZCbza9ci9Zg-6R5iXEwGIWsYdSx6OFTnj82kxSTsEh9zugdyoBPTAtlKbsisVz4DX9vy7iUqAmp1rZofW6xcaaT-H57s80dscL_EJnRLdz7c398tehyHMJ4vEUGO-19wvQlEnwvi2jEJQjH_BBrHtRFlCo9yzIA6d38fIXhiQcTVQcaDErczAsgRX71_VM7E6qCc4IONPZ5kH0iIK7NhycDLN7Ts_FqXmrT50VdOA8ODeGRIiFjK_Fwuieo3thY0EZeNdNH1ztk0yQGZbQ4_Q1H6eHT9I4f1s2V-rZ47FQwhyaTKCT92MXvrLZSI_VqFsA7w-Zq0tfE529RQF2SjC-X_-0_NTe5ibRoBWNWUO85XBJlb3K0LSqrsx0VVVheSKV]--></g></svg>