<?xml version="1.0" encoding="us-ascii" standalone="no"?><svg xmlns="http://www.w3.org/2000/svg" xmlns:xlink="http://www.w3.org/1999/xlink" contentStyleType="text/css" height="442px" preserveAspectRatio="none" style="width:610px;height:442px;background:#FFFFFF;" version="1.1" viewBox="0 0 610 442" width="610px" zoomAndPan="magnify"><defs/><g><!--class gorm--><g id="elem_gorm"><rect codeLine="204" fill="#F1F1F1" height="113.9531" id="gorm" rx="2.5" ry="2.5" style="stroke:#181818;stroke-width:0.5;" width="325" x="7" y="7"/><ellipse cx="123.75" cy="23" fill="#ADD1B2" rx="11" ry="11" style="stroke:#181818;stroke-width:1.0;"/><path d="M127.3643,29.5 L119.6445,29.5 L119.6445,17.1069 L127.3643,17.1069 L127.3643,19.2651 L122.0933,19.2651 L122.0933,21.938 L126.8662,21.938 L126.8662,24.0962 L122.0933,24.0962 L122.0933,27.3418 L127.3643,27.3418 Z " fill="#000000"/><text fill="#000000" font-family="sans-serif" font-size="14" lengthAdjust="spacing" textLength="83" x="144.25" y="28.291">gorm.Model</text><line style="stroke:#181818;stroke-width:0.5;" x1="8" x2="331" y1="39" y2="39"/><ellipse cx="18" cy="52.7441" fill="#000000" rx="3" ry="3" style="stroke:#000000;stroke-width:1.0;"/><text fill="#000000" font-family="sans-serif" font-size="14" lengthAdjust="spacing" textLength="239" x="27" y="56.5352">ID        : uint   `gorm:"primaryKey"`</text><text fill="#000000" font-family="sans-serif" font-size="14" lengthAdjust="spacing" textLength="149" x="27" y="73.0234">CreatedAt : time.Time</text><text fill="#000000" font-family="sans-serif" font-size="14" lengthAdjust="spacing" textLength="153" x="27" y="89.5117">UpdatedAt : time.Time</text><text fill="#000000" font-family="sans-serif" font-size="14" lengthAdjust="spacing" textLength="299" x="27" y="106">DeletedAt : gorm.DeletedAt `gorm:"index"`</text><line style="stroke:#181818;stroke-width:0.5;" x1="8" x2="331" y1="112.9531" y2="112.9531"/></g><!--class hash--><g id="elem_hash"><rect codeLine="210" fill="#F1F1F1" height="97.4648" id="hash" rx="2.5" ry="2.5" style="stroke:#181818;stroke-width:0.5;" width="189" x="367" y="338.42"/><ellipse cx="419.25" cy="354.42" fill="#ADD1B2" rx="11" ry="11" style="stroke:#181818;stroke-width:1.0;"/><path d="M422.8643,360.92 L415.1445,360.92 L415.1445,348.5269 L422.8643,348.5269 L422.8643,350.6851 L417.5933,350.6851 L417.5933,353.358 L422.3662,353.358 L422.3662,355.5162 L417.5933,355.5162 L417.5933,358.7618 L422.8643,358.7618 Z " fill="#000000"/><text fill="#000000" font-family="sans-serif" font-size="14" lengthAdjust="spacing" textLength="76" x="439.75" y="359.711">ModelHash</text><line style="stroke:#181818;stroke-width:0.5;" x1="368" x2="555" y1="370.42" y2="370.42"/><text fill="#000000" font-family="sans-serif" font-size="14" lengthAdjust="spacing" textLength="163" x="387" y="387.9552">gorm.Model &#171;inherited&#187;</text><ellipse cx="378" cy="400.6524" fill="#000000" rx="3" ry="3" style="stroke:#000000;stroke-width:1.0;"/><text fill="#000000" font-family="sans-serif" font-size="14" lengthAdjust="spacing" textLength="77" x="387" y="404.4434">name : text</text><ellipse cx="378" cy="417.1407" fill="#000000" rx="3" ry="3" style="stroke:#000000;stroke-width:1.0;"/><text fill="#000000" font-family="sans-serif" font-size="14" lengthAdjust="spacing" textLength="72" x="387" y="420.9317">hash : text</text><line style="stroke:#181818;stroke-width:0.5;" x1="368" x2="555" y1="427.8848" y2="427.8848"/></g><!--class hashbatch--><g id="elem_hashbatch"><rect codeLine="215" fill="#F1F1F1" height="97.4648" id="hashbatch" rx="2.5" ry="2.5" style="stroke:#181818;stroke-width:0.5;" width="189" x="367" y="15.24"/><ellipse cx="401.8" cy="31.24" fill="#ADD1B2" rx="11" ry="11" style="stroke:#181818;stroke-width:1.0;"/><path d="M405.4143,37.74 L397.6945,37.74 L397.6945,25.3469 L405.4143,25.3469 L405.4143,27.5051 L400.1433,27.5051 L400.1433,30.178 L404.9162,30.178 L404.9162,32.3362 L400.1433,32.3362 L400.1433,35.5818 L405.4143,35.5818 Z " fill="#000000"/><text fill="#000000" font-family="sans-serif" font-size="14" lengthAdjust="spacing" textLength="113" x="420.2" y="36.531">ModelHashBatch</text><line style="stroke:#181818;stroke-width:0.5;" x1="368" x2="555" y1="47.24" y2="47.24"/><text fill="#000000" font-family="sans-serif" font-size="14" lengthAdjust="spacing" textLength="163" x="387" y="64.7752">gorm.Model &#171;inherited&#187;</text><ellipse cx="378" cy="77.4724" fill="#000000" rx="3" ry="3" style="stroke:#000000;stroke-width:1.0;"/><text fill="#000000" font-family="sans-serif" font-size="14" lengthAdjust="spacing" textLength="105" x="387" y="81.2634">safename : text</text><text fill="#000000" font-family="sans-serif" font-size="14" lengthAdjust="spacing" textLength="139" x="387" y="97.7517">hashes : List&lt;Hash&gt;</text><line style="stroke:#181818;stroke-width:0.5;" x1="368" x2="555" y1="104.7048" y2="104.7048"/></g><!--class safehash--><g id="elem_safehash"><rect codeLine="220" fill="#F1F1F1" height="97.4648" id="safehash" rx="2.5" ry="2.5" style="stroke:#181818;stroke-width:0.5;" width="283" x="320" y="180.95"/><ellipse cx="399.25" cy="196.95" fill="#ADD1B2" rx="11" ry="11" style="stroke:#181818;stroke-width:1.0;"/><path d="M402.8643,203.45 L395.1445,203.45 L395.1445,191.0569 L402.8643,191.0569 L402.8643,193.2151 L397.5933,193.2151 L397.5933,195.888 L402.3662,195.888 L402.3662,198.0462 L397.5933,198.0462 L397.5933,201.2918 L402.8643,201.2918 Z " fill="#000000"/><text fill="#000000" font-family="sans-serif" font-size="14" lengthAdjust="spacing" textLength="116" x="419.75" y="202.241">SafenameHashes</text><line style="stroke:#181818;stroke-width:0.5;" x1="321" x2="602" y1="212.95" y2="212.95"/><ellipse cx="331" cy="226.6941" fill="#000000" rx="3" ry="3" style="stroke:#000000;stroke-width:1.0;"/><text fill="#000000" font-family="sans-serif" font-size="14" lengthAdjust="spacing" textLength="257" x="340" y="230.4852">ModelHashBatch.safename : text &#171;FK&#187;</text><ellipse cx="331" cy="243.1824" fill="#000000" rx="3" ry="3" style="stroke:#000000;stroke-width:1.0;"/><text fill="#000000" font-family="sans-serif" font-size="14" lengthAdjust="spacing" textLength="187" x="340" y="246.9734">ModelHash.hash : text &#171;FK&#187;</text><ellipse cx="331" cy="259.6707" fill="#000000" rx="3" ry="3" style="stroke:#000000;stroke-width:1.0;"/><text fill="#000000" font-family="sans-serif" font-size="14" lengthAdjust="spacing" textLength="192" x="340" y="263.4617">ModelHash.name : text &#171;FK&#187;</text><line style="stroke:#181818;stroke-width:0.5;" x1="321" x2="602" y1="270.4148" y2="270.4148"/></g><!--link hashbatch to safehash--><g id="link_hashbatch_safehash"><path codeLine="226" d="M461.5,120.8 C461.5,142.18 461.5,151.23 461.5,172.64 " fill="none" id="hashbatch-safehash" style="stroke:#181818;stroke-width:1.0;"/><line style="stroke:#181818;stroke-width:1.0;" x1="457.5" x2="465.5" y1="116.8" y2="116.8"/><line style="stroke:#181818;stroke-width:1.0;" x1="457.5" x2="465.5" y1="119.8" y2="119.8"/><line style="stroke:#181818;stroke-width:1.0;" x1="461.5" x2="461.5" y1="120.8" y2="112.8"/><line style="stroke:#181818;stroke-width:1.0;" x1="461.5" x2="467.5" y1="172.64" y2="180.64"/><line style="stroke:#181818;stroke-width:1.0;" x1="461.5" x2="455.5" y1="172.64" y2="180.64"/><line style="stroke:#181818;stroke-width:1.0;" x1="461.5" x2="461.5" y1="172.64" y2="180.64"/><line style="stroke:#181818;stroke-width:1.0;" x1="465.5" x2="457.5" y1="170.64" y2="170.64"/></g><!--link safehash to hash--><g id="link_safehash_hash"><path codeLine="227" d="M461.5,286.64 C461.5,305.51 461.5,311.06 461.5,329.95 " fill="none" id="safehash-hash" style="stroke:#181818;stroke-width:1.0;"/><line style="stroke:#181818;stroke-width:1.0;" x1="457.5" x2="465.5" y1="282.64" y2="282.64"/><line style="stroke:#181818;stroke-width:1.0;" x1="457.5" x2="465.5" y1="285.64" y2="285.64"/><line style="stroke:#181818;stroke-width:1.0;" x1="461.5" x2="461.5" y1="286.64" y2="278.64"/><line style="stroke:#181818;stroke-width:1.0;" x1="461.5" x2="467.5" y1="329.95" y2="337.95"/><line style="stroke:#181818;stroke-width:1.0;" x1="461.5" x2="455.5" y1="329.95" y2="337.95"/><line style="stroke:#181818;stroke-width:1.0;" x1="461.5" x2="461.5" y1="329.95" y2="337.95"/><line style="stroke:#181818;stroke-width:1.0;" x1="465.5" x2="457.5" y1="327.95" y2="327.95"/></g><!--SRC=[XK_1QiCm3BtxAqIEXUO3IWXiAwEZssdRlTwYBMAn4smD6fh- -opZEUq8p0UZ9pszz-I_o0xQQGCTMUHnGEWTjxr2oyGZ59-zC-LJts1NWFOW44uAO0KFMqXl0zzaEHG76M-AmP7HRjpZM1m2zSwXPcnkE12P39OluGlzrw5Px6-nmzz-j9yRoO1iWyUWVSunOyATzcrCsOOYffpJGrMHRT5H4AfhES1gW-ACHnOOTn9SqBtL_3wBlmdwrm6y_i1h6rb67_0ZUQv4kBvmUqxyNMH5Dv78vwpWEa_vno14kDydxymiBovR9Ymed9MQxvoczNewvIWgPqe3gNy0]--></g></svg>