<?xml version="1.0" encoding="us-ascii" standalone="no"?><svg xmlns="http://www.w3.org/2000/svg" xmlns:xlink="http://www.w3.org/1999/xlink" contentStyleType="text/css" height="734px" preserveAspectRatio="none" style="width:1154px;height:734px;background:#FFFFFF;" version="1.1" viewBox="0 0 1154 734" width="1154px" zoomAndPan="magnify"><defs/><g><text fill="#000000" font-family="sans-serif" font-size="14" font-weight="bold" lengthAdjust="spacing" textLength="139" x="503.75" y="27.9951">Brimstone Design</text><rect fill="none" height="132.6641" style="stroke:#000000;stroke-width:1.5;" width="820.5" x="62" y="252.125"/><line style="stroke:#181818;stroke-width:0.5;stroke-dasharray:5.0,5.0;" x1="29" x2="29" y1="118.5938" y2="727.25"/><line style="stroke:#181818;stroke-width:0.5;stroke-dasharray:5.0,5.0;" x1="114" x2="114" y1="118.5938" y2="727.25"/><line style="stroke:#181818;stroke-width:0.5;stroke-dasharray:5.0,5.0;" x1="630.5" x2="630.5" y1="118.5938" y2="727.25"/><line style="stroke:#181818;stroke-width:0.5;stroke-dasharray:5.0,5.0;" x1="707.5" x2="707.5" y1="118.5938" y2="727.25"/><line style="stroke:#181818;stroke-width:0.5;stroke-dasharray:5.0,5.0;" x1="817.5" x2="817.5" y1="118.5938" y2="727.25"/><line style="stroke:#181818;stroke-width:0.5;stroke-dasharray:5.0,5.0;" x1="924.5" x2="924.5" y1="118.5938" y2="727.25"/><line style="stroke:#181818;stroke-width:0.5;stroke-dasharray:5.0,5.0;" x1="1059.5" x2="1059.5" y1="118.5938" y2="727.25"/><text fill="#000000" font-family="sans-serif" font-size="14" lengthAdjust="spacing" textLength="43" x="5" y="115.292">Admin</text><ellipse cx="29.5" cy="50.7969" fill="#E2E2F0" rx="8" ry="8" style="stroke:#181818;stroke-width:0.5;"/><path d="M29.5,58.7969 L29.5,85.7969 M16.5,66.7969 L42.5,66.7969 M29.5,85.7969 L16.5,100.7969 M29.5,85.7969 L42.5,100.7969 " fill="none" style="stroke:#181818;stroke-width:0.5;"/><rect fill="#E2E2F0" height="30.2969" rx="2.5" ry="2.5" style="stroke:#181818;stroke-width:0.5;" width="85" x="72" y="87.2969"/><text fill="#000000" font-family="sans-serif" font-size="14" lengthAdjust="spacing" textLength="71" x="79" y="107.292">Brimstone</text><rect fill="#E2E2F0" height="30.2969" rx="2.5" ry="2.5" style="stroke:#181818;stroke-width:0.5;" width="44" x="608.5" y="87.2969"/><text fill="#000000" font-family="sans-serif" font-size="14" lengthAdjust="spacing" textLength="30" x="615.5" y="107.292">PAM</text><rect fill="#E2E2F0" height="30.2969" rx="2.5" ry="2.5" style="stroke:#181818;stroke-width:0.5;" width="91" x="662.5" y="87.2969"/><text fill="#000000" font-family="sans-serif" font-size="14" lengthAdjust="spacing" textLength="77" x="669.5" y="107.292">CPM Plugin</text><rect fill="#E2E2F0" height="30.2969" rx="2.5" ry="2.5" style="stroke:#181818;stroke-width:0.5;" width="109" x="763.5" y="87.2969"/><text fill="#000000" font-family="sans-serif" font-size="14" lengthAdjust="spacing" textLength="95" x="770.5" y="107.292">CockroachDB</text><rect fill="#E2E2F0" height="30.2969" rx="2.5" ry="2.5" style="stroke:#181818;stroke-width:0.5;" width="84" x="882.5" y="87.2969"/><text fill="#000000" font-family="sans-serif" font-size="14" lengthAdjust="spacing" textLength="70" x="889.5" y="107.292">Scheduler</text><rect fill="#E2E2F0" height="30.2969" rx="2.5" ry="2.5" style="stroke:#181818;stroke-width:0.5;" width="166" x="976.5" y="87.2969"/><text fill="#000000" font-family="sans-serif" font-size="14" lengthAdjust="spacing" textLength="152" x="983.5" y="107.292">Has My Secret Leaked</text><rect fill="#EEEEEE" height="3" style="stroke:#EEEEEE;stroke-width:1.0;" width="1147.5" x="0" y="149.1602"/><line style="stroke:#000000;stroke-width:1.0;" x1="0" x2="1147.5" y1="149.1602" y2="149.1602"/><line style="stroke:#000000;stroke-width:1.0;" x1="0" x2="1147.5" y1="152.1602" y2="152.1602"/><rect fill="#EEEEEE" height="23.1328" style="stroke:#000000;stroke-width:2.0;" width="419" x="364.25" y="138.5938"/><text fill="#000000" font-family="sans-serif" font-size="13" font-weight="bold" lengthAdjust="spacing" textLength="400" x="370.25" y="154.6606">Load PAM Accounts to Brimstone using Hailstone Tool</text><polygon fill="#181818" points="102.5,188.8594,112.5,192.8594,102.5,196.8594,106.5,192.8594" style="stroke:#181818;stroke-width:1.0;"/><line style="stroke:#181818;stroke-width:1.0;" x1="29.5" x2="108.5" y1="192.8594" y2="192.8594"/><text fill="#000000" font-family="sans-serif" font-size="13" lengthAdjust="spacing" textLength="61" x="36.5" y="187.7935">Run Once</text><polygon fill="#181818" points="618.5,233.125,628.5,237.125,618.5,241.125,622.5,237.125" style="stroke:#181818;stroke-width:1.0;"/><line style="stroke:#181818;stroke-width:1.0;" x1="114.5" x2="624.5" y1="237.125" y2="237.125"/><text fill="#000000" font-family="sans-serif" font-size="13" font-weight="bold" lengthAdjust="spacing" textLength="249" x="121.5" y="216.9263">GET /PasswordVault/API/Accounts</text><text fill="#000000" font-family="sans-serif" font-size="13" lengthAdjust="spacing" textLength="145" x="121.5" y="232.0591">Get List of Account IDs</text><path d="M62,252.125 L139,252.125 L139,259.2578 L129,269.2578 L62,269.2578 L62,252.125 " fill="#EEEEEE" style="stroke:#000000;stroke-width:1.5;"/><rect fill="none" height="132.6641" style="stroke:#000000;stroke-width:1.5;" width="820.5" x="62" y="252.125"/><text fill="#000000" font-family="sans-serif" font-size="13" font-weight="bold" lengthAdjust="spacing" textLength="32" x="77" y="265.1919">loop</text><text fill="#000000" font-family="sans-serif" font-size="11" font-weight="bold" lengthAdjust="spacing" textLength="121" x="154" y="264.3354">[For Each Account]</text><polygon fill="#181818" points="618.5,301.5234,628.5,305.5234,618.5,309.5234,622.5,305.5234" style="stroke:#181818;stroke-width:1.0;"/><line style="stroke:#181818;stroke-width:1.0;" x1="114.5" x2="624.5" y1="305.5234" y2="305.5234"/><text fill="#000000" font-family="sans-serif" font-size="13" font-weight="bold" lengthAdjust="spacing" textLength="492" x="121.5" y="285.3247">GET /PasswordVault/API/Accounts/{accountId}/Password/Retrieve/</text><text fill="#000000" font-family="sans-serif" font-size="13" lengthAdjust="spacing" textLength="183" x="121.5" y="300.4575">Get Account Password Value</text><line style="stroke:#181818;stroke-width:1.0;" x1="114.5" x2="156.5" y1="334.6563" y2="334.6563"/><line style="stroke:#181818;stroke-width:1.0;" x1="156.5" x2="156.5" y1="334.6563" y2="347.6563"/><line style="stroke:#181818;stroke-width:1.0;" x1="115.5" x2="156.5" y1="347.6563" y2="347.6563"/><polygon fill="#181818" points="125.5,343.6563,115.5,347.6563,125.5,351.6563,121.5,347.6563" style="stroke:#181818;stroke-width:1.0;"/><text fill="#000000" font-family="sans-serif" font-size="13" lengthAdjust="spacing" textLength="184" x="121.5" y="329.5903">Compute Hash For Password</text><polygon fill="#181818" points="806,372.7891,816,376.7891,806,380.7891,810,376.7891" style="stroke:#181818;stroke-width:1.0;"/><line style="stroke:#181818;stroke-width:1.0;" x1="114.5" x2="812" y1="376.7891" y2="376.7891"/><text fill="#000000" font-family="sans-serif" font-size="13" lengthAdjust="spacing" textLength="72" x="121.5" y="371.7231">Store Hash</text><polygon fill="#181818" points="40.5,408.9219,30.5,412.9219,40.5,416.9219,36.5,412.9219" style="stroke:#181818;stroke-width:1.0;"/><line style="stroke:#181818;stroke-width:1.0;" x1="34.5" x2="113.5" y1="412.9219" y2="412.9219"/><text fill="#000000" font-family="sans-serif" font-size="13" lengthAdjust="spacing" textLength="34" x="46.5" y="407.856">Done</text><rect fill="#EEEEEE" height="3" style="stroke:#EEEEEE;stroke-width:1.0;" width="1147.5" x="0" y="441.4883"/><line style="stroke:#000000;stroke-width:1.0;" x1="0" x2="1147.5" y1="441.4883" y2="441.4883"/><line style="stroke:#000000;stroke-width:1.0;" x1="0" x2="1147.5" y1="444.4883" y2="444.4883"/><rect fill="#EEEEEE" height="23.1328" style="stroke:#000000;stroke-width:2.0;" width="213" x="467.25" y="430.9219"/><text fill="#000000" font-family="sans-serif" font-size="13" font-weight="bold" lengthAdjust="spacing" textLength="194" x="473.25" y="446.9888">Updates From CPM Plugin</text><polygon fill="#181818" points="125.5,506.8867,115.5,510.8867,125.5,514.8867,121.5,510.8867" style="stroke:#181818;stroke-width:1.0;"/><line style="stroke:#181818;stroke-width:1.0;" x1="119.5" x2="629.5" y1="510.8867" y2="510.8867"/><text fill="#000000" font-family="sans-serif" font-size="13" font-weight="bold" lengthAdjust="spacing" textLength="112" x="131.5" y="490.688">PUT /v1/hashes</text><text fill="#000000" font-family="sans-serif" font-size="13" lengthAdjust="spacing" textLength="197" x="131.5" y="505.8208">CPM Plugin sends hmsl hashes</text><path d="M635,469.0547 L635,524.0547 L794,524.0547 L794,479.0547 L784,469.0547 L635,469.0547 " fill="#FEFFDD" style="stroke:#181818;stroke-width:0.5;"/><path d="M784,469.0547 L784,479.0547 L794,479.0547 L784,469.0547 " fill="#FEFFDD" style="stroke:#181818;stroke-width:0.5;"/><text fill="#000000" font-family="sans-serif" font-size="13" lengthAdjust="spacing" textLength="138" x="641" y="486.1216">CPM Plugin computes</text><text fill="#000000" font-family="sans-serif" font-size="13" lengthAdjust="spacing" textLength="137" x="641" y="501.2544">hashes on passwords</text><text fill="#000000" font-family="sans-serif" font-size="13" lengthAdjust="spacing" textLength="95" x="641" y="516.3872">before sending</text><polygon fill="#181818" points="806,546.5859,816,550.5859,806,554.5859,810,550.5859" style="stroke:#181818;stroke-width:1.0;"/><line style="stroke:#181818;stroke-width:1.0;" x1="114.5" x2="812" y1="550.5859" y2="550.5859"/><text fill="#000000" font-family="sans-serif" font-size="13" lengthAdjust="spacing" textLength="87" x="121.5" y="545.52">Store Hashes</text><rect fill="#EEEEEE" height="3" style="stroke:#EEEEEE;stroke-width:1.0;" width="1147.5" x="0" y="579.1523"/><line style="stroke:#000000;stroke-width:1.0;" x1="0" x2="1147.5" y1="579.1523" y2="579.1523"/><line style="stroke:#000000;stroke-width:1.0;" x1="0" x2="1147.5" y1="582.1523" y2="582.1523"/><rect fill="#EEEEEE" height="23.1328" style="stroke:#000000;stroke-width:2.0;" width="248" x="449.75" y="568.5859"/><text fill="#000000" font-family="sans-serif" font-size="13" font-weight="bold" lengthAdjust="spacing" textLength="229" x="455.75" y="584.6528">Send To Has My Secret Leaked</text><polygon fill="#181818" points="125.5,633.9844,115.5,637.9844,125.5,641.9844,121.5,637.9844" style="stroke:#181818;stroke-width:1.0;"/><line style="stroke:#181818;stroke-width:1.0;" x1="119.5" x2="923.5" y1="637.9844" y2="637.9844"/><text fill="#000000" font-family="sans-serif" font-size="13" font-weight="bold" lengthAdjust="spacing" textLength="282" x="131.5" y="617.7856">GET /v1/hashes/send(prefixes|hashes)</text><text fill="#000000" font-family="sans-serif" font-size="13" lengthAdjust="spacing" textLength="151" x="131.5" y="632.9185">Trigger Upload to HMSL</text><line style="stroke:#181818;stroke-width:1.0;" x1="114.5" x2="156.5" y1="667.1172" y2="667.1172"/><line style="stroke:#181818;stroke-width:1.0;" x1="156.5" x2="156.5" y1="667.1172" y2="680.1172"/><line style="stroke:#181818;stroke-width:1.0;" x1="115.5" x2="156.5" y1="680.1172" y2="680.1172"/><polygon fill="#181818" points="125.5,676.1172,115.5,680.1172,125.5,684.1172,121.5,680.1172" style="stroke:#181818;stroke-width:1.0;"/><text fill="#000000" font-family="sans-serif" font-size="13" lengthAdjust="spacing" textLength="99" x="121.5" y="662.0513">Create Batches</text><polygon fill="#181818" points="1047.5,705.25,1057.5,709.25,1047.5,713.25,1051.5,709.25" style="stroke:#181818;stroke-width:1.0;"/><line style="stroke:#181818;stroke-width:1.0;" x1="114.5" x2="1053.5" y1="709.25" y2="709.25"/><text fill="#000000" font-family="sans-serif" font-size="13" lengthAdjust="spacing" textLength="273" x="121.5" y="704.1841">Upload Hashes (or Hash prefixes) to HMSL</text><!--SRC=[dLF1Rjim3BthAuYSsiDWx6eq0UAwRG8ac54dFVMYo4miL94CIUuwRFltKLRjnDdMGo-MPJwIxptINdg5a5bvTDveX1oTF6XMomfXRupVcJV6kF36mhmwIWtSmQHxcx26Mo-5RBZsPnK2OBYDGSLytONf70TkYnW8Pw7QmsNrF8jX8rwiuQBEit6y53LMhKBRmORR6BHObwiklg37-WUKA2nwM25_mMh2s7GAAyEhZkLS2DDgxy2RCscja_e02ovLl6-CKJ2TikZCbza9ci9Zg-6R5iXEwGIWsYdSx6OFTnj82kxSTsEh9zugdyoBPTAtlKbsisVz4DX9vy7iUqAmp1rZofW6xcaaT-H57s80dscL_EJnRLdz7c398tehyHMJ4vEUGO-19wvQlEnwvi2jEJQjH_BBrHtRFlCo9yzIA6d38fIXhiQcTVQcaDErczAsgRX71_VM7E6qCc4IONPZ5kH0iIK7NhycDLN7Ts_FqXmrT50VdOA8ODeGRIiFjK_Fwuieo3thY0EZeNdNH1ztk0yQGZbQ4_Q1H6eHT9I4f1s2V-rZ47FQwhyaTKCT92MXvrLZSI_VqFsA7w-Zq0tfE529RQF2SjC-X_-0_NTe5ibRoBWNWUO85XBJlb3K0LSqrsx0VVVheSKV]--></g></svg>