<?xml version="1.0" encoding="us-ascii" standalone="no"?><svg xmlns="http://www.w3.org/2000/svg" xmlns:xlink="http://www.w3.org/1999/xlink" contentStyleType="text/css" height="443px" preserveAspectRatio="none" style="width:770px;height:443px;background:#FFFFFF;" version="1.1" viewBox="0 0 770 443" width="770px" zoomAndPan="magnify"><defs/><g><text fill="#000000" font-family="sans-serif" font-size="14" font-weight="bold" lengthAdjust="spacing" textLength="246" x="258" y="27.9951">GG Incident To PAM Account ID</text><line style="stroke:#181818;stroke-width:0.5;stroke-dasharray:5.0,5.0;" x1="27" x2="27" y1="73.5938" y2="436.9219"/><line style="stroke:#181818;stroke-width:0.5;stroke-dasharray:5.0,5.0;" x1="270.5" x2="270.5" y1="73.5938" y2="436.9219"/><line style="stroke:#181818;stroke-width:0.5;stroke-dasharray:5.0,5.0;" x1="497.5" x2="497.5" y1="73.5938" y2="436.9219"/><rect fill="#E2E2F0" height="30.2969" rx="2.5" ry="2.5" style="stroke:#181818;stroke-width:0.5;" width="44" x="5" y="42.2969"/><text fill="#000000" font-family="sans-serif" font-size="14" lengthAdjust="spacing" textLength="30" x="12" y="62.292">PAM</text><rect fill="#E2E2F0" height="30.2969" rx="2.5" ry="2.5" style="stroke:#181818;stroke-width:0.5;" width="85" x="228.5" y="42.2969"/><text fill="#000000" font-family="sans-serif" font-size="14" lengthAdjust="spacing" textLength="71" x="235.5" y="62.292">Brimstone</text><rect fill="#E2E2F0" height="30.2969" rx="2.5" ry="2.5" style="stroke:#181818;stroke-width:0.5;" width="99" x="448.5" y="42.2969"/><text fill="#000000" font-family="sans-serif" font-size="14" lengthAdjust="spacing" textLength="85" x="455.5" y="62.292">Git Guardian</text><rect fill="#EEEEEE" height="3" style="stroke:#EEEEEE;stroke-width:1.0;" width="763" x="0" y="104.1602"/><line style="stroke:#000000;stroke-width:1.0;" x1="0" x2="763" y1="104.1602" y2="104.1602"/><line style="stroke:#000000;stroke-width:1.0;" x1="0" x2="763" y1="107.1602" y2="107.1602"/><rect fill="#EEEEEE" height="23.1328" style="stroke:#000000;stroke-width:2.0;" width="159" x="302" y="93.5938"/><text fill="#000000" font-family="sans-serif" font-size="13" font-weight="bold" lengthAdjust="spacing" textLength="140" x="308" y="109.6606">Save HMSL Hashes</text><polygon fill="#181818" points="259,143.8594,269,147.8594,259,151.8594,263,147.8594" style="stroke:#181818;stroke-width:1.0;"/><line style="stroke:#181818;stroke-width:1.0;" x1="27" x2="265" y1="147.8594" y2="147.8594"/><text fill="#000000" font-family="sans-serif" font-size="13" lengthAdjust="spacing" textLength="220" x="34" y="142.7935">Send HMSL Hash, PAM Account ID</text><line style="stroke:#181818;stroke-width:1.0;" x1="271" x2="313" y1="192.125" y2="192.125"/><line style="stroke:#181818;stroke-width:1.0;" x1="313" x2="313" y1="192.125" y2="205.125"/><line style="stroke:#181818;stroke-width:1.0;" x1="272" x2="313" y1="205.125" y2="205.125"/><polygon fill="#181818" points="282,201.125,272,205.125,282,209.125,278,205.125" style="stroke:#181818;stroke-width:1.0;"/><text fill="#000000" font-family="sans-serif" font-size="13" lengthAdjust="spacing" textLength="117" x="278" y="171.9263">Store HMSL Hash,</text><text fill="#000000" font-family="sans-serif" font-size="13" lengthAdjust="spacing" textLength="101" x="278" y="187.0591">PAM Account ID</text><path d="M407,164.3594 L407,204.3594 L671,204.3594 L671,174.3594 L661,164.3594 L407,164.3594 " fill="#FEFFDD" style="stroke:#181818;stroke-width:0.5;"/><path d="M661,164.3594 L661,174.3594 L671,174.3594 L661,164.3594 " fill="#FEFFDD" style="stroke:#181818;stroke-width:0.5;"/><text fill="#000000" font-family="sans-serif" font-size="13" lengthAdjust="spacing" textLength="243" x="413" y="181.4263">Map of HMSL Hash to PAM Account ID</text><text fill="#000000" font-family="sans-serif" font-size="13" lengthAdjust="spacing" textLength="223" x="413" y="196.5591">Used for remediating PAM Account</text><rect fill="#EEEEEE" height="3" style="stroke:#EEEEEE;stroke-width:1.0;" width="763" x="0" y="233.6914"/><line style="stroke:#000000;stroke-width:1.0;" x1="0" x2="763" y1="233.6914" y2="233.6914"/><line style="stroke:#000000;stroke-width:1.0;" x1="0" x2="763" y1="236.6914" y2="236.6914"/><rect fill="#EEEEEE" height="23.1328" style="stroke:#000000;stroke-width:2.0;" width="139" x="312" y="223.125"/><text fill="#000000" font-family="sans-serif" font-size="13" font-weight="bold" lengthAdjust="spacing" textLength="120" x="318" y="239.1919">Secret Detected</text><line style="stroke:#181818;stroke-width:1.0;" x1="498" x2="540" y1="292.5234" y2="292.5234"/><line style="stroke:#181818;stroke-width:1.0;" x1="540" x2="540" y1="292.5234" y2="305.5234"/><line style="stroke:#181818;stroke-width:1.0;" x1="499" x2="540" y1="305.5234" y2="305.5234"/><polygon fill="#181818" points="509,301.5234,499,305.5234,509,309.5234,505,305.5234" style="stroke:#181818;stroke-width:1.0;"/><text fill="#000000" font-family="sans-serif" font-size="13" lengthAdjust="spacing" textLength="251" x="505" y="272.3247">Add "Integrations -&gt; Custom Webhook"</text><text fill="#000000" font-family="sans-serif" font-size="13" lengthAdjust="spacing" textLength="206" x="505" y="287.4575">to send "Incidents" to Brimstone</text><line style="stroke:#181818;stroke-width:1.0;" x1="498" x2="540" y1="334.6563" y2="334.6563"/><line style="stroke:#181818;stroke-width:1.0;" x1="540" x2="540" y1="334.6563" y2="347.6563"/><line style="stroke:#181818;stroke-width:1.0;" x1="499" x2="540" y1="347.6563" y2="347.6563"/><polygon fill="#181818" points="509,343.6563,499,347.6563,509,351.6563,505,347.6563" style="stroke:#181818;stroke-width:1.0;"/><text fill="#000000" font-family="sans-serif" font-size="13" lengthAdjust="spacing" textLength="176" x="505" y="329.5903">Custom Webhook Triggered</text><polygon fill="#181818" points="282,372.7891,272,376.7891,282,380.7891,278,376.7891" style="stroke:#181818;stroke-width:1.0;"/><line style="stroke:#181818;stroke-width:1.0;" x1="276" x2="497" y1="376.7891" y2="376.7891"/><text fill="#000000" font-family="sans-serif" font-size="13" lengthAdjust="spacing" textLength="203" x="288" y="371.7231">Send "hmsl_hash" to Brimstone</text><line style="stroke:#181818;stroke-width:1.0;" x1="271" x2="313" y1="405.9219" y2="405.9219"/><line style="stroke:#181818;stroke-width:1.0;" x1="313" x2="313" y1="405.9219" y2="418.9219"/><line style="stroke:#181818;stroke-width:1.0;" x1="272" x2="313" y1="418.9219" y2="418.9219"/><polygon fill="#181818" points="282,414.9219,272,418.9219,282,422.9219,278,418.9219" style="stroke:#181818;stroke-width:1.0;"/><text fill="#000000" font-family="sans-serif" font-size="13" lengthAdjust="spacing" textLength="173" x="278" y="400.856">Remediate Exposed Secret</text><!--SRC=[TP7HQiCm34NVynN2pzqF13B8rf466XXBnru2mutLnAonWgsCVlxajMlQm9viSw-aUsIsV4Ge2YXTQmqwXXt1Qrv1thOqoRDS9xq8S23YFPsIPDIURMj7BM8qwW1AJdKdF7ax12Q7l_BrTM-IgL4jh5mdxOtLJYL9ba6jln4sLRs5ZGuz1iYo98vwU9mRfr2ZCxDhjKmzHrYKCVcRxgl6BGeTCOAtNSyfL7e4EinkuELs6lSUqCXwF7WSK23OkkxMT4R2rYF36XbR5hyG2RuaAueKScD0bOwnyr9DBaJXUPB00tpWlYVwKesJqI4Ygx-l2Yh6kQBTDBolXPtGTEZHN2pB9Qf-2CVFNlWM7V_RuTk55E7bD5BaF_Fz0000]--></g></svg>