<?xml version="1.0" encoding="us-ascii" standalone="no"?><svg xmlns="http://www.w3.org/2000/svg" xmlns:xlink="http://www.w3.org/1999/xlink" contentStyleType="text/css" height="446px" preserveAspectRatio="none" style="width:758px;height:446px;background:#FFFFFF;" version="1.1" viewBox="0 0 758 446" width="758px" zoomAndPan="magnify"><defs/><g><text fill="#000000" font-family="sans-serif" font-size="14" font-weight="bold" lengthAdjust="spacing" textLength="227" x="261.5" y="28.5352">GG Incident To PAM Account ID</text><line style="stroke:#181818;stroke-width:0.5;stroke-dasharray:5.0,5.0;" x1="27" x2="27" y1="73.9766" y2="439.082"/><line style="stroke:#181818;stroke-width:0.5;stroke-dasharray:5.0,5.0;" x1="264.5" x2="264.5" y1="73.9766" y2="439.082"/><line style="stroke:#181818;stroke-width:0.5;stroke-dasharray:5.0,5.0;" x1="485" x2="485" y1="73.9766" y2="439.082"/><rect fill="#E2E2F0" height="30.4883" rx="2.5" ry="2.5" style="stroke:#181818;stroke-width:0.5;" width="44" x="5" y="42.4883"/><text fill="#000000" font-family="sans-serif" font-size="14" lengthAdjust="spacing" textLength="30" x="12" y="63.0234">PAM</text><rect fill="#E2E2F0" height="30.4883" rx="2.5" ry="2.5" style="stroke:#181818;stroke-width:0.5;" width="83" x="223.5" y="42.4883"/><text fill="#000000" font-family="sans-serif" font-size="14" lengthAdjust="spacing" textLength="69" x="230.5" y="63.0234">Brimstone</text><rect fill="#E2E2F0" height="30.4883" rx="2.5" ry="2.5" style="stroke:#181818;stroke-width:0.5;" width="100" x="435" y="42.4883"/><text fill="#000000" font-family="sans-serif" font-size="14" lengthAdjust="spacing" textLength="86" x="442" y="63.0234">Git Guardian</text><rect fill="#EEEEEE" height="3" style="stroke:#EEEEEE;stroke-width:1.0;" width="751" x="0" y="104.6318"/><line style="stroke:#000000;stroke-width:1.0;" x1="0" x2="751" y1="104.6318" y2="104.6318"/><line style="stroke:#000000;stroke-width:1.0;" x1="0" x2="751" y1="107.6318" y2="107.6318"/><rect fill="#EEEEEE" height="23.3105" style="stroke:#000000;stroke-width:2.0;" width="143" x="304" y="93.9766"/><text fill="#000000" font-family="sans-serif" font-size="13" font-weight="bold" lengthAdjust="spacing" textLength="125" x="310" y="110.5449">Save HMSL Hashes</text><polygon fill="#181818" points="253,144.5977,263,148.5977,253,152.5977,257,148.5977" style="stroke:#181818;stroke-width:1.0;"/><line style="stroke:#181818;stroke-width:1.0;" x1="27" x2="259" y1="148.5977" y2="148.5977"/><text fill="#000000" font-family="sans-serif" font-size="13" lengthAdjust="spacing" textLength="214" x="34" y="143.8555">Send HMSL Hash, PAM Account ID</text><line style="stroke:#181818;stroke-width:1.0;" x1="265" x2="307" y1="193.2188" y2="193.2188"/><line style="stroke:#181818;stroke-width:1.0;" x1="307" x2="307" y1="193.2188" y2="206.2188"/><line style="stroke:#181818;stroke-width:1.0;" x1="266" x2="307" y1="206.2188" y2="206.2188"/><polygon fill="#181818" points="276,202.2188,266,206.2188,276,210.2188,272,206.2188" style="stroke:#181818;stroke-width:1.0;"/><text fill="#000000" font-family="sans-serif" font-size="13" lengthAdjust="spacing" textLength="111" x="272" y="173.166">Store HMSL Hash,</text><text fill="#000000" font-family="sans-serif" font-size="13" lengthAdjust="spacing" textLength="101" x="272" y="188.4766">PAM Account ID</text><path d="M395,165.0977 L395,205.0977 L656,205.0977 L656,175.0977 L646,165.0977 L395,165.0977 " fill="#FEFFDD" style="stroke:#181818;stroke-width:0.5;"/><path d="M646,165.0977 L646,175.0977 L656,175.0977 L646,165.0977 " fill="#FEFFDD" style="stroke:#181818;stroke-width:0.5;"/><text fill="#000000" font-family="sans-serif" font-size="13" lengthAdjust="spacing" textLength="240" x="401" y="182.666">Map of HMSL Hash to PAM Account ID</text><text fill="#000000" font-family="sans-serif" font-size="13" lengthAdjust="spacing" textLength="219" x="401" y="197.9766">Used for remediating PAM Account</text><rect fill="#EEEEEE" height="3" style="stroke:#EEEEEE;stroke-width:1.0;" width="751" x="0" y="234.874"/><line style="stroke:#000000;stroke-width:1.0;" x1="0" x2="751" y1="234.874" y2="234.874"/><line style="stroke:#000000;stroke-width:1.0;" x1="0" x2="751" y1="237.874" y2="237.874"/><rect fill="#EEEEEE" height="23.3105" style="stroke:#000000;stroke-width:2.0;" width="123" x="314" y="224.2188"/><text fill="#000000" font-family="sans-serif" font-size="13" font-weight="bold" lengthAdjust="spacing" textLength="105" x="320" y="240.7871">Secret Detected</text><line style="stroke:#181818;stroke-width:1.0;" x1="485" x2="527" y1="294.1504" y2="294.1504"/><line style="stroke:#181818;stroke-width:1.0;" x1="527" x2="527" y1="294.1504" y2="307.1504"/><line style="stroke:#181818;stroke-width:1.0;" x1="486" x2="527" y1="307.1504" y2="307.1504"/><polygon fill="#181818" points="496,303.1504,486,307.1504,496,311.1504,492,307.1504" style="stroke:#181818;stroke-width:1.0;"/><text fill="#000000" font-family="sans-serif" font-size="13" lengthAdjust="spacing" textLength="252" x="492" y="274.0977">Add "Integrations -&gt; Custom Webhook"</text><text fill="#000000" font-family="sans-serif" font-size="13" lengthAdjust="spacing" textLength="203" x="492" y="289.4082">to send "Incidents" to Brimstone</text><line style="stroke:#181818;stroke-width:1.0;" x1="485" x2="527" y1="336.4609" y2="336.4609"/><line style="stroke:#181818;stroke-width:1.0;" x1="527" x2="527" y1="336.4609" y2="349.4609"/><line style="stroke:#181818;stroke-width:1.0;" x1="486" x2="527" y1="349.4609" y2="349.4609"/><polygon fill="#181818" points="496,345.4609,486,349.4609,496,353.4609,492,349.4609" style="stroke:#181818;stroke-width:1.0;"/><text fill="#000000" font-family="sans-serif" font-size="13" lengthAdjust="spacing" textLength="175" x="492" y="331.7188">Custom Webhook Triggered</text><polygon fill="#181818" points="276,374.7715,266,378.7715,276,382.7715,272,378.7715" style="stroke:#181818;stroke-width:1.0;"/><line style="stroke:#181818;stroke-width:1.0;" x1="270" x2="484" y1="378.7715" y2="378.7715"/><text fill="#000000" font-family="sans-serif" font-size="13" lengthAdjust="spacing" textLength="196" x="282" y="374.0293">Send "hmsl_hash" to Brimstone</text><line style="stroke:#181818;stroke-width:1.0;" x1="265" x2="307" y1="408.082" y2="408.082"/><line style="stroke:#181818;stroke-width:1.0;" x1="307" x2="307" y1="408.082" y2="421.082"/><line style="stroke:#181818;stroke-width:1.0;" x1="266" x2="307" y1="421.082" y2="421.082"/><polygon fill="#181818" points="276,417.082,266,421.082,276,425.082,272,421.082" style="stroke:#181818;stroke-width:1.0;"/><text fill="#000000" font-family="sans-serif" font-size="13" lengthAdjust="spacing" textLength="164" x="272" y="403.3398">Remediate Exposed Secret</text><!--SRC=[TP7HQiCm34NVynN2pzqF13B8rf466XXBnru2mutLnAonWgsCVlxajMlQm9viSw-aUsIsV4Ge2YXTQmqwXXt1Qrv1thOqoRDS9xq8S23YFPsIPDIURMj7BM8qwW1AJdKdF7ax12Q7l_BrTM-IgL4jh5mdxOtLJYL9ba6jln4sLRs5ZGuz1iYo98vwU9mRfr2ZCxDhjKmzHrYKCVcRxgl6BGeTCOAtNSyfL7e4EinkuELs6lSUqCXwF7WSK23OkkxMT4R2rYF36XbR5hyG2RuaAueKScD0bOwnyr9DBaJXUPB00tpWlYVwKesJqI4Ygx-l2Yh6kQBTDBolXPtGTEZHN2pB9Qf-2CVFNlWM7V_RuTk55E7bD5BaF_Fz0000]--></g></svg>