<?xml version="1.0" encoding="us-ascii" standalone="no"?><svg xmlns="http://www.w3.org/2000/svg" xmlns:xlink="http://www.w3.org/1999/xlink" contentStyleType="text/css" height="502px" preserveAspectRatio="none" style="width:765px;height:502px;background:#FFFFFF;" version="1.1" viewBox="0 0 765 502" width="765px" zoomAndPan="magnify"><defs/><g><text fill="#000000" font-family="sans-serif" font-size="14" font-weight="bold" lengthAdjust="spacing" textLength="283" x="237" y="27.9951">Remediation GitGuardian Use Cases</text><line style="stroke:#181818;stroke-width:0.5;stroke-dasharray:5.0,5.0;" x1="47" x2="47" y1="73.5938" y2="495.1875"/><line style="stroke:#181818;stroke-width:0.5;stroke-dasharray:5.0,5.0;" x1="441.5" x2="441.5" y1="73.5938" y2="495.1875"/><line style="stroke:#181818;stroke-width:0.5;stroke-dasharray:5.0,5.0;" x1="522.5" x2="522.5" y1="73.5938" y2="495.1875"/><rect fill="#E2E2F0" height="30.2969" rx="2.5" ry="2.5" style="stroke:#181818;stroke-width:0.5;" width="85" x="5" y="42.2969"/><text fill="#000000" font-family="sans-serif" font-size="14" lengthAdjust="spacing" textLength="71" x="12" y="62.292">Brimstone</text><rect fill="#E2E2F0" height="30.2969" rx="2.5" ry="2.5" style="stroke:#181818;stroke-width:0.5;" width="44" x="419.5" y="42.2969"/><text fill="#000000" font-family="sans-serif" font-size="14" lengthAdjust="spacing" textLength="30" x="426.5" y="62.292">PAM</text><rect fill="#E2E2F0" height="30.2969" rx="2.5" ry="2.5" style="stroke:#181818;stroke-width:0.5;" width="99" x="473.5" y="42.2969"/><text fill="#000000" font-family="sans-serif" font-size="14" lengthAdjust="spacing" textLength="85" x="480.5" y="62.292">Git Guardian</text><rect fill="#EEEEEE" height="3" style="stroke:#EEEEEE;stroke-width:1.0;" width="758" x="0" y="104.1602"/><line style="stroke:#000000;stroke-width:1.0;" x1="0" x2="758" y1="104.1602" y2="104.1602"/><line style="stroke:#000000;stroke-width:1.0;" x1="0" x2="758" y1="107.1602" y2="107.1602"/><rect fill="#EEEEEE" height="23.1328" style="stroke:#000000;stroke-width:2.0;" width="528" x="115" y="93.5938"/><text fill="#000000" font-family="sans-serif" font-size="13" font-weight="bold" lengthAdjust="spacing" textLength="504" x="121" y="109.6606">Remediate Existing Exposed Credential - Change Account Password</text><line style="stroke:#181818;stroke-width:1.0;" x1="523" x2="565" y1="147.8594" y2="147.8594"/><line style="stroke:#181818;stroke-width:1.0;" x1="565" x2="565" y1="147.8594" y2="160.8594"/><line style="stroke:#181818;stroke-width:1.0;" x1="524" x2="565" y1="160.8594" y2="160.8594"/><polygon fill="#181818" points="534,156.8594,524,160.8594,534,164.8594,530,160.8594" style="stroke:#181818;stroke-width:1.0;"/><text fill="#000000" font-family="sans-serif" font-size="13" lengthAdjust="spacing" textLength="221" x="530" y="142.7935">Incident Triggers Custom Webhook</text><polygon fill="#181818" points="58.5,185.9922,48.5,189.9922,58.5,193.9922,54.5,189.9922" style="stroke:#181818;stroke-width:1.0;"/><line style="stroke:#181818;stroke-width:1.0;" x1="52.5" x2="522" y1="189.9922" y2="189.9922"/><text fill="#000000" font-family="sans-serif" font-size="13" lengthAdjust="spacing" textLength="202" x="64.5" y="184.9263">Send "hmsl_hash" to brimstone</text><line style="stroke:#181818;stroke-width:1.0;" x1="47.5" x2="89.5" y1="219.125" y2="219.125"/><line style="stroke:#181818;stroke-width:1.0;" x1="89.5" x2="89.5" y1="219.125" y2="232.125"/><line style="stroke:#181818;stroke-width:1.0;" x1="48.5" x2="89.5" y1="232.125" y2="232.125"/><polygon fill="#181818" points="58.5,228.125,48.5,232.125,58.5,236.125,54.5,232.125" style="stroke:#181818;stroke-width:1.0;"/><text fill="#000000" font-family="sans-serif" font-size="13" lengthAdjust="spacing" textLength="236" x="54.5" y="214.0591">Lookup Account ID from "hmsl_hash"</text><polygon fill="#181818" points="429.5,272.3906,439.5,276.3906,429.5,280.3906,433.5,276.3906" style="stroke:#181818;stroke-width:1.0;"/><line style="stroke:#181818;stroke-width:1.0;" x1="47.5" x2="435.5" y1="276.3906" y2="276.3906"/><text fill="#000000" font-family="sans-serif" font-size="13" lengthAdjust="spacing" textLength="223" x="54.5" y="256.1919">Call Change Password Immediately</text><text fill="#000000" font-family="sans-serif" font-size="13" lengthAdjust="spacing" textLength="370" x="54.5" y="271.3247">POST /PasswordVault/API/Accounts/&lt;AccountID&gt;/Change/</text><rect fill="#EEEEEE" height="3" style="stroke:#EEEEEE;stroke-width:1.0;" width="758" x="0" y="304.957"/><line style="stroke:#000000;stroke-width:1.0;" x1="0" x2="758" y1="304.957" y2="304.957"/><line style="stroke:#000000;stroke-width:1.0;" x1="0" x2="758" y1="307.957" y2="307.957"/><rect fill="#EEEEEE" height="23.1328" style="stroke:#000000;stroke-width:2.0;" width="458" x="150" y="294.3906"/><text fill="#000000" font-family="sans-serif" font-size="13" font-weight="bold" lengthAdjust="spacing" textLength="434" x="156" y="310.4575">Remediate Non-tracked Exposed Credential - Add Account</text><line style="stroke:#181818;stroke-width:1.0;" x1="523" x2="565" y1="348.6563" y2="348.6563"/><line style="stroke:#181818;stroke-width:1.0;" x1="565" x2="565" y1="348.6563" y2="361.6563"/><line style="stroke:#181818;stroke-width:1.0;" x1="524" x2="565" y1="361.6563" y2="361.6563"/><polygon fill="#181818" points="534,357.6563,524,361.6563,534,365.6563,530,361.6563" style="stroke:#181818;stroke-width:1.0;"/><text fill="#000000" font-family="sans-serif" font-size="13" lengthAdjust="spacing" textLength="221" x="530" y="343.5903">Incident Triggers Custom Webhook</text><polygon fill="#181818" points="58.5,386.7891,48.5,390.7891,58.5,394.7891,54.5,390.7891" style="stroke:#181818;stroke-width:1.0;"/><line style="stroke:#181818;stroke-width:1.0;" x1="52.5" x2="522" y1="390.7891" y2="390.7891"/><text fill="#000000" font-family="sans-serif" font-size="13" lengthAdjust="spacing" textLength="202" x="64.5" y="385.7231">Send "hmsl_hash" to brimstone</text><line style="stroke:#181818;stroke-width:1.0;" x1="47.5" x2="89.5" y1="419.9219" y2="419.9219"/><line style="stroke:#181818;stroke-width:1.0;" x1="89.5" x2="89.5" y1="419.9219" y2="432.9219"/><line style="stroke:#181818;stroke-width:1.0;" x1="48.5" x2="89.5" y1="432.9219" y2="432.9219"/><polygon fill="#181818" points="58.5,428.9219,48.5,432.9219,58.5,436.9219,54.5,432.9219" style="stroke:#181818;stroke-width:1.0;"/><text fill="#000000" font-family="sans-serif" font-size="13" lengthAdjust="spacing" textLength="236" x="54.5" y="414.856">Lookup Account ID from "hmsl_hash"</text><polygon fill="#181818" points="429.5,473.1875,439.5,477.1875,429.5,481.1875,433.5,477.1875" style="stroke:#181818;stroke-width:1.0;"/><line style="stroke:#181818;stroke-width:1.0;" x1="47.5" x2="435.5" y1="477.1875" y2="477.1875"/><text fill="#000000" font-family="sans-serif" font-size="13" lengthAdjust="spacing" textLength="209" x="54.5" y="456.9888">Create account in "Pending" safe</text><text fill="#000000" font-family="sans-serif" font-size="13" lengthAdjust="spacing" textLength="226" x="54.5" y="472.1216">POST /PasswordVault/API/Accounts/</text><!--SRC=[rL9DJyCm3BttLrYzJxrFT58fgAh4nyG6N92GrtYjjJIfabICVuytsa8H1wwSOiVsUyzF3XmqmGErf1W3MmC5Xw979wc1Hq-GeoSVDQm8zjQ6dJr6KOSkSCKTcW2NZbiVh2503_6KnREcTNPxBiixBnJ5-Lz8OMIDeoXD9qa4rqVsWKqjGMSzASWTAJA1KSC2yWPDJP1LbUrFHEZzctKA84qZ0L-iX689fQduD0DRntLDpaFUYymMdcdNM7iOMYVrIzYGKH0thTUl3VecXc1XDvQZhwNdKpU2rNUJcl8AzavOlk7CHyMFfJYizRZ7fBziX_tr-ujPts-sa8or9-nrIB9rcGmyFhaOel9gbNmY9JzSlBDc4HnM1p7mLoCpfIRT_yayHwVrS1XY8qScx78lCNZSqn_C-m00]--></g></svg>