<?xml version="1.0" encoding="us-ascii" standalone="no"?><svg xmlns="http://www.w3.org/2000/svg" xmlns:xlink="http://www.w3.org/1999/xlink" contentStyleType="text/css" height="504px" preserveAspectRatio="none" style="width:776px;height:504px;background:#FFFFFF;" version="1.1" viewBox="0 0 776 504" width="776px" zoomAndPan="magnify"><defs/><g><text fill="#000000" font-family="sans-serif" font-size="14" font-weight="bold" lengthAdjust="spacing" textLength="169" x="299.75" y="28.5352">Remediation Use Cases</text><line style="stroke:#181818;stroke-width:0.5;stroke-dasharray:5.0,5.0;" x1="46" x2="46" y1="73.9766" y2="497.7031"/><line style="stroke:#181818;stroke-width:0.5;stroke-dasharray:5.0,5.0;" x1="451.5" x2="451.5" y1="73.9766" y2="497.7031"/><line style="stroke:#181818;stroke-width:0.5;stroke-dasharray:5.0,5.0;" x1="533.5" x2="533.5" y1="73.9766" y2="497.7031"/><rect fill="#E2E2F0" height="30.4883" rx="2.5" ry="2.5" style="stroke:#181818;stroke-width:0.5;" width="83" x="5" y="42.4883"/><text fill="#000000" font-family="sans-serif" font-size="14" lengthAdjust="spacing" textLength="69" x="12" y="63.0234">Brimstone</text><rect fill="#E2E2F0" height="30.4883" rx="2.5" ry="2.5" style="stroke:#181818;stroke-width:0.5;" width="44" x="429.5" y="42.4883"/><text fill="#000000" font-family="sans-serif" font-size="14" lengthAdjust="spacing" textLength="30" x="436.5" y="63.0234">PAM</text><rect fill="#E2E2F0" height="30.4883" rx="2.5" ry="2.5" style="stroke:#181818;stroke-width:0.5;" width="100" x="483.5" y="42.4883"/><text fill="#000000" font-family="sans-serif" font-size="14" lengthAdjust="spacing" textLength="86" x="490.5" y="63.0234">Git Guardian</text><rect fill="#EEEEEE" height="3" style="stroke:#EEEEEE;stroke-width:1.0;" width="769.5" x="0" y="104.6318"/><line style="stroke:#000000;stroke-width:1.0;" x1="0" x2="769.5" y1="104.6318" y2="104.6318"/><line style="stroke:#000000;stroke-width:1.0;" x1="0" x2="769.5" y1="107.6318" y2="107.6318"/><rect fill="#EEEEEE" height="23.3105" style="stroke:#000000;stroke-width:2.0;" width="293" x="238.25" y="93.9766"/><text fill="#000000" font-family="sans-serif" font-size="13" font-weight="bold" lengthAdjust="spacing" textLength="275" x="244.25" y="110.5449">Remediate - Change Exposed Credential</text><line style="stroke:#181818;stroke-width:1.0;" x1="533.5" x2="575.5" y1="148.5977" y2="148.5977"/><line style="stroke:#181818;stroke-width:1.0;" x1="575.5" x2="575.5" y1="148.5977" y2="161.5977"/><line style="stroke:#181818;stroke-width:1.0;" x1="534.5" x2="575.5" y1="161.5977" y2="161.5977"/><polygon fill="#181818" points="544.5,157.5977,534.5,161.5977,544.5,165.5977,540.5,161.5977" style="stroke:#181818;stroke-width:1.0;"/><text fill="#000000" font-family="sans-serif" font-size="13" lengthAdjust="spacing" textLength="222" x="540.5" y="143.8555">Incident Triggers Custom Webhook</text><polygon fill="#181818" points="57.5,186.9082,47.5,190.9082,57.5,194.9082,53.5,190.9082" style="stroke:#181818;stroke-width:1.0;"/><line style="stroke:#181818;stroke-width:1.0;" x1="51.5" x2="532.5" y1="190.9082" y2="190.9082"/><text fill="#000000" font-family="sans-serif" font-size="13" lengthAdjust="spacing" textLength="197" x="63.5" y="186.166">Send "hmsl_hash" to brimstone</text><line style="stroke:#181818;stroke-width:1.0;" x1="46.5" x2="88.5" y1="220.2188" y2="220.2188"/><line style="stroke:#181818;stroke-width:1.0;" x1="88.5" x2="88.5" y1="220.2188" y2="233.2188"/><line style="stroke:#181818;stroke-width:1.0;" x1="47.5" x2="88.5" y1="233.2188" y2="233.2188"/><polygon fill="#181818" points="57.5,229.2188,47.5,233.2188,57.5,237.2188,53.5,233.2188" style="stroke:#181818;stroke-width:1.0;"/><text fill="#000000" font-family="sans-serif" font-size="13" lengthAdjust="spacing" textLength="237" x="53.5" y="215.4766">Lookup Account ID from "hmsl_hash"</text><polygon fill="#181818" points="439.5,273.8398,449.5,277.8398,439.5,281.8398,443.5,277.8398" style="stroke:#181818;stroke-width:1.0;"/><line style="stroke:#181818;stroke-width:1.0;" x1="46.5" x2="445.5" y1="277.8398" y2="277.8398"/><text fill="#000000" font-family="sans-serif" font-size="13" lengthAdjust="spacing" textLength="219" x="53.5" y="257.7871">Call Change Password Immediately</text><text fill="#000000" font-family="sans-serif" font-size="13" lengthAdjust="spacing" textLength="381" x="53.5" y="273.0977">POST /PasswordVault/API/Accounts/&lt;AccountID&gt;/Change/</text><rect fill="#EEEEEE" height="3" style="stroke:#EEEEEE;stroke-width:1.0;" width="769.5" x="0" y="306.4951"/><line style="stroke:#000000;stroke-width:1.0;" x1="0" x2="769.5" y1="306.4951" y2="306.4951"/><line style="stroke:#000000;stroke-width:1.0;" x1="0" x2="769.5" y1="309.4951" y2="309.4951"/><rect fill="#EEEEEE" height="23.3105" style="stroke:#000000;stroke-width:2.0;" width="303" x="233.25" y="295.8398"/><text fill="#000000" font-family="sans-serif" font-size="13" font-weight="bold" lengthAdjust="spacing" textLength="285" x="239.25" y="312.4082">Remediate - Provision Exposed Credential</text><line style="stroke:#181818;stroke-width:1.0;" x1="533.5" x2="575.5" y1="350.4609" y2="350.4609"/><line style="stroke:#181818;stroke-width:1.0;" x1="575.5" x2="575.5" y1="350.4609" y2="363.4609"/><line style="stroke:#181818;stroke-width:1.0;" x1="534.5" x2="575.5" y1="363.4609" y2="363.4609"/><polygon fill="#181818" points="544.5,359.4609,534.5,363.4609,544.5,367.4609,540.5,363.4609" style="stroke:#181818;stroke-width:1.0;"/><text fill="#000000" font-family="sans-serif" font-size="13" lengthAdjust="spacing" textLength="222" x="540.5" y="345.7188">Incident Triggers Custom Webhook</text><polygon fill="#181818" points="57.5,388.7715,47.5,392.7715,57.5,396.7715,53.5,392.7715" style="stroke:#181818;stroke-width:1.0;"/><line style="stroke:#181818;stroke-width:1.0;" x1="51.5" x2="532.5" y1="392.7715" y2="392.7715"/><text fill="#000000" font-family="sans-serif" font-size="13" lengthAdjust="spacing" textLength="197" x="63.5" y="388.0293">Send "hmsl_hash" to brimstone</text><line style="stroke:#181818;stroke-width:1.0;" x1="46.5" x2="88.5" y1="422.082" y2="422.082"/><line style="stroke:#181818;stroke-width:1.0;" x1="88.5" x2="88.5" y1="422.082" y2="435.082"/><line style="stroke:#181818;stroke-width:1.0;" x1="47.5" x2="88.5" y1="435.082" y2="435.082"/><polygon fill="#181818" points="57.5,431.082,47.5,435.082,57.5,439.082,53.5,435.082" style="stroke:#181818;stroke-width:1.0;"/><text fill="#000000" font-family="sans-serif" font-size="13" lengthAdjust="spacing" textLength="237" x="53.5" y="417.3398">Lookup Account ID from "hmsl_hash"</text><polygon fill="#181818" points="439.5,475.7031,449.5,479.7031,439.5,483.7031,443.5,479.7031" style="stroke:#181818;stroke-width:1.0;"/><line style="stroke:#181818;stroke-width:1.0;" x1="46.5" x2="445.5" y1="479.7031" y2="479.7031"/><text fill="#000000" font-family="sans-serif" font-size="13" lengthAdjust="spacing" textLength="204" x="53.5" y="459.6504">Create account in "Pending" safe</text><text fill="#000000" font-family="sans-serif" font-size="13" lengthAdjust="spacing" textLength="234" x="53.5" y="474.9609">POST /PasswordVault/API/Accounts/</text><!--SRC=[rLB1JiCm3BtdAwpUfzudEcaKD5K2KR415oJajLvhaIPLdCBuUxpH3IekN3d5oOlVytj9v6W9xgcZcZ6oT_0W13aAYMcv9jXv7xT-RqoF8NB5FRe8bu4xYTuHe41otYMJI-NozWZhEWLMg-FvYhKSCAYmIup9ilCO13F8MtGDmVM-zq8rv85gSf7HGfOPPPWjb6SEXQlu0C0cSDDG4CW7dQM39zgsth-ELyyZpc5DheQaxSI-j2Xj0j73zWIRRsVJhXlb6dfOLfKVLAsuWbrGbHyyqrOrFTSOhJqPAL7atOSQYcuqQJ-UNNctta1wmXvni35TbaKwwaXwCLR5rIBzOaf_HLK6_yPoUBl_dLQWWnySczZfrr5rTaq2WZlwGrgV]--></g></svg>